<svg width="29" height="32" viewBox="0 0 29 32" fill="none" xmlns="http://www.w3.org/2000/svg">
<path fill-rule="evenodd" clip-rule="evenodd" d="M27.93 23.01L23.99 18.56V10.69C23.99 8.35 22.58 6.67 20.74 5.63C19.63 5.01 18.33 4.58 16.97 4.35C17.18 3.94 17.3 3.49 17.3 3C17.3 1.34 15.96 0 14.3 0C12.64 0 11.3 1.34 11.3 3C11.3 3.49 11.42 3.94 11.62 4.35C10.26 4.58 8.96 5.01 7.85 5.63C6.01 6.67 4.6 8.35 4.6 10.69V18.56L0.660003 23.01C-0.839997 24.7 0.360003 27.38 2.63 27.38H8.05C8.29 28.48 8.9 29.5 9.82 30.29C11.03 31.33 12.67 31.88 14.3 31.88C15.94 31.88 17.54 31.32 18.74 30.29C19.65 29.51 20.29 28.5 20.54 27.38H25.96C28.23 27.38 29.43 24.7 27.93 23.01ZM17.28 28.58C16.51 29.24 15.45 29.63 14.3 29.63C13.15 29.63 12.04 29.23 11.28 28.58C10.87 28.23 10.58 27.82 10.39 27.38H18.18C17.99 27.81 17.69 28.22 17.28 28.58ZM25.97 25.12H20.68H7.92H2.63C2.31 25.12 2.14 24.74 2.35 24.5L6.38 19.95C6.68 19.61 6.85 19.17 6.85 18.71V10.7C6.85 9.41 7.58 8.37 8.96 7.6C10.35 6.81 12.29 6.38 14.3 6.38C16.31 6.38 18.25 6.81 19.64 7.6C21.01 8.38 21.75 9.42 21.75 10.7V18.71C21.75 19.17 21.92 19.61 22.22 19.95L26.25 24.5C26.46 24.74 26.29 25.12 25.97 25.12Z" fill="black"/>
</svg>
