<svg width="176" height="60" viewBox="0 0 176 60" fill="none" xmlns="http://www.w3.org/2000/svg">
<path d="M9.69674 45.9855C9.12098 45.7045 8.64988 45.251 8.35072 44.6898C8.05156 44.1287 7.93964 43.4885 8.03095 42.8608C8.54546 39.2001 8.75772 34.1748 8.81847 26.9687C8.81847 22.0548 8.67056 18.0159 8.37472 14.8521C8.31842 14.2385 8.50925 13.6278 8.90584 13.1522C9.30244 12.6767 9.87286 12.3745 10.4935 12.3113C12.4849 12.1038 14.7921 12 17.4151 12C20.5113 12 23.3138 12.2987 25.8225 12.896C28.2574 13.4623 30.577 14.4337 32.6818 15.7686C34.7459 17.0848 36.3476 18.938 37.4869 21.3284C38.6261 23.7188 39.1955 26.5827 39.195 29.9203C39.195 35.1905 37.5935 39.5213 34.3906 42.9125C31.1877 46.3036 26.6323 47.9995 20.7244 48C16.3661 47.9985 12.5846 47.3698 9.69674 45.9855ZM17.4912 17.9008C17.3266 17.9172 17.1749 17.996 17.068 18.1206C16.9612 18.2453 16.9075 18.406 16.9183 18.569C17.0336 20.424 17.0921 22.2373 17.0921 24.8077C17.0921 31.3721 16.7798 36.6632 16.3153 40.6777C16.2966 40.8326 16.3297 40.9893 16.4095 41.124C16.4893 41.2586 16.6115 41.3637 16.7575 41.4234C18.6802 42.1934 21.235 42.2518 22.3363 42.1273C25.018 41.8236 27.0384 41.0916 28.515 38.8622C29.9916 36.6328 30.4376 34.313 30.4376 30.9742C30.4376 26.442 29.4858 23.025 27.5821 20.7232C25.6779 18.4224 22.9462 17.8119 19.3877 17.8119C18.7458 17.8114 18.1136 17.841 17.4912 17.9008Z" fill="#3832E1"/>
<path d="M62.0196 44.5716C59.7952 46.8572 56.8736 48 53.255 48C49.6364 48 46.7244 46.8572 44.5191 44.5716C42.3109 42.2855 41.207 39.2378 41.2075 35.4284C41.2075 31.4469 42.3114 28.261 44.5191 25.8706C46.7268 23.4802 49.6397 22.2853 53.2579 22.2858C56.8765 22.2858 59.798 23.4807 62.0225 25.8706C64.247 28.2605 65.3589 31.4464 65.3585 35.4284C65.3566 39.2388 64.2436 42.2865 62.0196 44.5716ZM57.9347 36.468C57.9347 33.8361 57.5198 31.6455 56.69 29.8962C55.8602 28.147 54.7147 27.2726 53.2536 27.2731C51.8259 27.2731 50.7056 27.9828 49.8925 29.4023C49.0794 30.8218 48.6729 32.6928 48.6729 35.0153C48.6729 37.3009 49.0794 39.1969 49.8925 40.7031C50.7056 42.2094 51.8259 42.9628 53.2536 42.9633C54.7477 42.9633 55.9015 42.3646 56.7151 41.1672C57.5286 39.9697 57.9352 38.4033 57.9347 36.468Z" fill="#3832E1"/>
<path d="M90.0605 44.5716C87.7429 46.8572 84.7 48 80.9317 48C77.1634 48 74.1285 46.8572 71.8268 44.5716C69.5267 42.2855 68.3769 39.2378 68.3774 35.4284C68.3774 31.4469 69.5272 28.261 71.8268 25.8706C74.1265 23.4802 77.1609 22.2853 80.9302 22.2858C84.6985 22.2858 87.7414 23.4807 90.059 25.8706C92.3766 28.2605 93.5351 31.4464 93.5346 35.4284C93.5341 39.2388 92.3761 42.2865 90.0605 44.5716ZM85.8047 36.468C85.8047 33.8361 85.3726 31.6455 84.5082 29.8962C83.6438 28.147 82.4509 27.2726 80.9295 27.2731C79.4419 27.2731 78.2746 27.9828 77.4277 29.4023C76.5808 30.8218 76.1573 32.6928 76.1573 35.0153C76.1573 37.3009 76.5808 39.1969 77.4277 40.7031C78.2746 42.2094 79.4419 42.9628 80.9295 42.9633C82.4853 42.9633 83.6869 42.3646 84.5344 41.1672C85.3818 39.9697 85.8052 38.4033 85.8047 36.468Z" fill="#3832E1"/>
<path d="M117.23 44.5716C114.913 46.8572 111.87 48.0001 108.101 48.0001C104.332 48.0001 101.297 46.8572 98.9966 44.5716C96.6965 42.2855 95.5467 39.2378 95.5472 35.4284C95.5472 31.4469 96.697 28.261 98.9966 25.8706C101.296 23.4802 104.331 22.2853 108.1 22.2858C111.869 22.2858 114.912 23.4807 117.23 25.8706C119.547 28.2605 120.705 31.4464 120.704 35.4284C120.705 39.2388 119.547 42.2865 117.23 44.5716ZM112.978 36.468C112.978 33.8361 112.545 31.6455 111.681 29.8962C110.817 28.147 109.623 27.2726 108.102 27.2731C106.614 27.2731 105.447 27.9828 104.6 29.4023C103.754 30.8218 103.33 32.6928 103.33 35.0153C103.33 37.3009 103.754 39.1969 104.6 40.7031C105.447 42.2094 106.614 42.9628 108.102 42.9633C109.657 42.9633 110.859 42.3646 111.706 41.1672C112.554 39.9697 112.978 38.4033 112.978 36.468Z" fill="#3832E1"/>
<path d="M135.994 22.2858C138.396 22.2858 140.473 22.9266 142.226 24.2082C143.98 25.4898 144.856 27.3952 144.855 29.9244C144.855 35.0518 141.415 37.6153 134.534 37.6148C133.917 37.6148 132.797 37.5801 131.174 37.5107C131.174 39.485 131.637 40.9226 132.562 41.8234C133.487 42.7242 134.631 43.1734 135.994 43.1709C138.396 43.1709 140.262 42.3394 141.593 40.6765C142.304 41.0293 142.929 41.5539 143.417 42.2089C143.888 42.8507 144.123 43.4995 144.123 44.1553C144.123 45.1943 143.547 46.0255 142.395 46.6488C141.243 47.2722 140.123 47.6532 139.035 47.7919C137.993 47.9276 136.945 47.997 135.895 48C132.324 48 129.403 46.952 127.131 44.8559C124.86 42.7599 123.724 39.5641 123.723 35.2687C123.723 32.4285 124.348 29.9951 125.598 27.9684C126.848 25.9417 128.373 24.4866 130.174 23.6033C131.977 22.7249 133.917 22.2858 135.994 22.2858ZM135.605 27.222C134.436 27.222 133.414 27.785 132.538 28.9108C131.662 30.0367 131.207 31.6909 131.172 33.8733C132.08 33.8044 132.721 33.7438 133.095 33.6914C133.47 33.639 134.005 33.5264 134.702 33.3538C135.4 33.1811 135.903 32.9473 136.211 32.6523C136.52 32.3574 136.804 31.9417 137.064 31.4052C137.324 30.8682 137.453 30.2012 137.453 29.4042C137.453 28.8492 137.263 28.3136 136.918 27.898C136.561 27.4483 136.124 27.223 135.605 27.222Z" fill="#3832E1"/>
<path d="M153.174 22.6584C154.514 22.6584 155.557 22.8861 156.301 23.3415C157.044 23.7969 157.415 24.6926 157.413 26.0284V26.7115C158.41 25.5473 159.558 24.5198 160.827 23.6558C162.149 22.745 163.464 22.2883 164.771 22.2858C165.794 22.2858 166.588 22.5228 167.153 22.997C167.717 23.4711 167.999 24.0945 168 24.8671C168 26.3077 167.364 27.7126 166.093 29.0819C164.858 28.3102 163.711 27.9239 162.653 27.9229C161.1 27.9229 159.282 28.9941 157.2 31.1365C157.093 33.2101 157.04 35.2134 157.04 37.1463C157.04 42.1345 157.34 45.5247 157.94 47.3169C156.518 47.7633 155.037 47.9936 153.546 48C151.886 48 150.73 47.7104 150.078 47.131C149.426 46.5516 149.099 45.6998 149.099 44.5754C149.099 44.0143 149.124 42.6971 149.175 40.6241C149.226 38.551 149.251 36.9004 149.251 35.6723C149.251 30.6492 149.128 26.5397 148.88 23.3438C150.263 22.8802 151.714 22.6486 153.174 22.6584Z" fill="#3832E1"/>
</svg>
