<svg width="30" height="26" viewBox="0 0 30 26" fill="none" xmlns="http://www.w3.org/2000/svg">
<path d="M1.70628 10.8027C2.28973 18.0791 9.74754 22.8661 14.105 24.6729C14.6468 24.8976 15.2525 24.9095 15.8007 24.7008C20.3421 22.9716 27.5362 18.1663 28.2288 10.8027C29.5531 1.0003 17.899 -1.82353 14.9477 4.07761C11.8321 -1.90022 0.927372 1.08869 1.70628 10.8027Z" fill="#3832E1"/>
<path fill-rule="evenodd" clip-rule="evenodd" d="M6.4933 0.627859C3.06949 2.00525 0.285011 5.58895 0.709469 10.8825C1.02801 14.8551 3.21819 18.0864 5.80562 20.5175C8.39437 22.9499 11.4582 24.6578 13.7219 25.5965C14.4961 25.9176 15.3662 25.9362 16.1566 25.6352C18.5328 24.7305 21.5854 23.031 24.148 20.5884C26.7082 18.148 28.8413 14.9032 29.2225 10.9164C29.9404 5.54103 27.0704 1.96577 23.5492 0.617342C20.6092 -0.508539 17.0223 -0.105068 14.9417 2.29479C12.8503 -0.123257 9.38713 -0.536327 6.4933 0.627859ZM7.23976 2.48334C9.91815 1.40582 12.8036 2.12726 14.0609 4.53968C14.2346 4.87287 14.5803 5.0806 14.9561 5.07746C15.3318 5.07432 15.674 4.86084 15.8421 4.5248C17.0114 2.18665 20.0197 1.40734 22.834 2.48507C25.5422 3.52219 27.8344 6.25281 27.2378 10.6687C27.236 10.682 27.2345 10.6955 27.2332 10.7089C26.9164 14.0765 25.1091 16.9093 22.7681 19.1407C20.4251 21.374 17.6101 22.9417 15.4449 23.7661L15.8007 24.7007L15.4449 23.7661C15.1389 23.8827 14.7975 23.8774 14.488 23.7491C12.3943 22.8809 9.5505 21.2919 7.17513 19.06C4.79843 16.8268 2.96798 14.0264 2.70307 10.7226C2.34862 6.30218 4.62704 3.53443 7.23976 2.48334Z" fill="#3832E1"/>
</svg>
