<svg width="22" height="18" viewBox="0 0 22 18" fill="none" xmlns="http://www.w3.org/2000/svg">
<path fill-rule="evenodd" clip-rule="evenodd" d="M19.0303 0.96967C19.3232 1.26256 19.3232 1.73744 19.0303 2.03033L4.03033 17.0303C3.73744 17.3232 3.26256 17.3232 2.96967 17.0303C2.67678 16.7374 2.67678 16.2626 2.96967 15.9697L17.9697 0.96967C18.2626 0.676777 18.7374 0.676777 19.0303 0.96967Z" fill="#B1B1B1"/>
<path fill-rule="evenodd" clip-rule="evenodd" d="M19.0303 0.96967C19.3232 1.26256 19.3232 1.73744 19.0303 2.03033L4.03033 17.0303C3.73744 17.3232 3.26256 17.3232 2.96967 17.0303C2.67678 16.7374 2.67678 16.2626 2.96967 15.9697L17.9697 0.96967C18.2626 0.676777 18.7374 0.676777 19.0303 0.96967Z" fill="#B1B1B1"/>
<path fill-rule="evenodd" clip-rule="evenodd" d="M8.69824 10.9236C9.24856 11.5815 10.0756 12 11.0005 12C12.6573 12 14.0005 10.6569 14.0005 9C14.0005 8.07516 13.582 7.24807 12.9241 6.69775L8.69824 10.9236Z" fill="#B1B1B1"/>
<path fill-rule="evenodd" clip-rule="evenodd" d="M14.822 3.11727C13.6384 2.59564 12.347 2.25 10.9999 2.25C8.2381 2.25 5.71 3.70298 3.86564 5.14686C2.00441 6.60393 0.730744 8.13782 0.462788 8.47054C0.212919 8.7808 0.21293 9.21922 0.462788 9.52946C0.730745 9.86218 2.00441 11.3961 3.86564 12.8531C4.08877 13.0278 4.32192 13.2026 4.56427 13.375L5.64134 12.2979C5.34776 12.0959 5.06359 11.886 4.79028 11.672C3.48833 10.6528 2.4921 9.58928 1.97775 9C2.4921 8.41072 3.48833 7.34722 4.79028 6.32797C6.54185 4.95674 8.73999 3.75 10.9999 3.75C11.9088 3.75 12.8077 3.94518 13.6715 4.26774L14.822 3.11727ZM6.95577 13.1048C8.21871 13.7852 9.59742 14.25 10.9999 14.25C13.2599 14.25 15.458 13.0433 17.2096 11.672C18.5115 10.6528 19.5078 9.58928 20.0221 9C19.5078 8.41072 18.5115 7.34722 17.2096 6.32797C16.5676 5.82541 15.8657 5.34495 15.1227 4.93789L16.2229 3.83771C16.9174 4.24542 17.5591 4.69658 18.1342 5.14686C19.9954 6.60393 21.2691 8.13782 21.5371 8.47054C21.7869 8.78078 21.7869 9.2192 21.5371 9.52946C21.2691 9.86218 19.9955 11.3961 18.1342 12.8531C16.2899 14.297 13.7618 15.75 10.9999 15.75C9.13098 15.75 7.36906 15.0846 5.85362 14.207L6.95577 13.1048Z" fill="#B1B1B1"/>
</svg>
