<?xml version="1.0" encoding="utf-8"?>
<!-- Generator: Adobe Illustrator 25.2.0, SVG Export Plug-In . SVG Version: 6.00 Build 0)  -->
<svg version="1.1" id="Layer_1" xmlns="http://www.w3.org/2000/svg" xmlns:xlink="http://www.w3.org/1999/xlink" x="0px" y="0px"
	 viewBox="0 0 22 18" style="enable-background:new 0 0 22 18;" xml:space="preserve">
<style type="text/css">
	.st0{fill-rule:evenodd;clip-rule:evenodd;fill:#B1B1B1;}
</style>
<path class="st0" d="M2,9c0.5,0.6,1.5,1.7,2.8,2.7c1.8,1.4,3.9,2.6,6.2,2.6c2.3,0,4.5-1.2,6.2-2.6c1.3-1,2.3-2.1,2.8-2.7
	c-0.5-0.6-1.5-1.7-2.8-2.7C15.5,5,13.3,3.7,11,3.7C8.7,3.7,6.5,5,4.8,6.3C3.5,7.3,2.5,8.4,2,9z M3.9,5.1C5.7,3.7,8.2,2.2,11,2.2
	c2.8,0,5.3,1.5,7.1,2.9c1.9,1.5,3.1,3,3.4,3.3c0.2,0.3,0.2,0.7,0,1.1c-0.3,0.3-1.5,1.9-3.4,3.3c-1.8,1.4-4.4,2.9-7.1,2.9
	c-2.8,0-5.3-1.5-7.1-2.9c-1.9-1.5-3.1-3-3.4-3.3c-0.2-0.3-0.2-0.7,0-1.1C0.7,8.1,2,6.6,3.9,5.1z"/>
<path class="st0" d="M11,6.7c-1.2,0-2.2,1-2.2,2.3s1,2.2,2.2,2.2c1.2,0,2.2-1,2.2-2.2S12.2,6.7,11,6.7z M7.2,9
	c0-2.1,1.7-3.8,3.8-3.8c2.1,0,3.8,1.7,3.8,3.8s-1.7,3.8-3.8,3.8C8.9,12.7,7.2,11.1,7.2,9z"/>
</svg>
