<svg width="60" height="60" viewBox="0 0 60 60" fill="none" xmlns="http://www.w3.org/2000/svg">
<path fill-rule="evenodd" clip-rule="evenodd" d="M36.4459 19.8814C38.2862 20.9204 39.6964 22.6023 39.6964 24.9443V32.8142L43.6332 37.2597C45.1332 38.9536 43.9306 41.625 41.668 41.625H18.3319C16.0692 41.625 14.8666 38.9536 16.3667 37.2597L20.3035 32.8142V24.9442C20.3035 22.6022 21.7137 20.9204 23.554 19.8814C25.3739 18.8539 27.7209 18.375 29.9999 18.375C32.2789 18.375 34.626 18.8539 36.4459 19.8814ZM24.6602 21.8407C23.2862 22.6164 22.5535 23.6567 22.5535 24.9442V32.957C22.5535 33.416 22.3852 33.8573 22.0822 34.1994L18.0512 38.7514C17.8369 38.9934 18.0087 39.375 18.3319 39.375H41.668C41.9912 39.375 42.163 38.9934 41.9487 38.7514L37.9177 34.1994C37.6147 33.8573 37.4464 33.416 37.4464 32.957V24.9443C37.4464 23.6567 36.7137 22.6164 35.3397 21.8407C33.9453 21.0534 32.0067 20.625 29.9999 20.625C27.9932 20.625 26.0546 21.0534 24.6602 21.8407Z" fill="#000000"/>
<path d="M32.9999 17.25C32.9999 18.9069 31.6567 20.25 29.9999 20.25C28.343 20.25 26.9999 18.9069 26.9999 17.25C26.9999 15.5931 28.343 14.25 29.9999 14.25C31.6567 14.25 32.9999 15.5931 32.9999 17.25Z" fill="#000000"/>
<path fill-rule="evenodd" clip-rule="evenodd" d="M23.6249 39.375H36.3743V40.5C36.3743 42.0527 35.6532 43.4994 34.4437 44.5361C33.2396 45.5683 31.6388 46.125 29.9993 46.125C28.3674 46.125 26.7271 45.5729 25.5176 44.5361C24.2897 43.4837 23.6249 42.0298 23.6249 40.5L23.6249 39.375ZM26.0969 41.625C26.2789 42.0668 26.5734 42.4777 26.9819 42.8278C27.7415 43.4789 28.8464 43.875 29.9993 43.875C31.1445 43.875 32.2145 43.4835 32.9794 42.8278C33.3934 42.473 33.6962 42.0612 33.886 41.625H26.0969Z" fill="#000000"/>
</svg>
